<svg width="52" height="55" viewBox="0 0 52 55" fill="none" xmlns="http://www.w3.org/2000/svg">
<path id="path1288" d="M42.1338 35.5427L41.9706 35.5973C42.0497 35.7755 42.1287 35.9538 42.2077 36.1321C42.0818 36.1903 41.9755 36.2546 41.8835 36.3557C42.3082 36.756 42.1105 37.3498 41.8459 37.7988C41.5489 37.9395 41.2243 38.0431 40.8962 38.0522L40.8532 38.1959C41.0807 38.3235 41.2917 38.4958 41.4626 38.6401L40.3171 39.9733L39.709 39.9872L39.6759 40.1282L39.7572 41.3593L39.0763 42.8928L39.0459 43.1597C39.0459 43.1597 38.9627 43.0548 38.9037 43.0602C38.8447 43.0655 38.775 43.168 38.775 43.168L38.4585 44.679C38.3021 44.8836 37.9918 44.8709 37.8419 45.0369C37.7825 45.2762 37.7394 45.5478 37.7031 45.7683C37.735 45.9949 37.7363 46.2224 37.7397 46.4505C37.7108 46.4995 37.3922 47.1668 37.3619 47.2849C37.3315 47.4031 37.267 47.8073 37.267 47.8073L36.9721 48.0114C36.9906 48.0829 37.0092 48.1543 37.0278 48.2258C37.1071 48.388 37.2693 48.5048 37.3316 48.6797C37.2379 48.8359 37.1441 48.9922 37.0504 49.1485C36.9563 49.3419 36.7993 49.4903 36.6861 49.6707C36.5593 49.8404 36.4944 50.0543 36.3246 50.1891C36.1675 50.414 36.0247 50.6523 35.9017 50.8989C35.8071 51.0254 35.838 51.1877 35.8183 51.3355C35.7775 51.4805 35.9524 51.5885 35.8953 51.7337C35.913 51.8417 35.8008 51.8675 35.7329 51.9214C35.656 51.9203 35.5736 51.8554 35.4946 51.8305C35.4116 51.8042 35.3146 51.7622 35.2445 51.8374C35.1448 51.8666 35.1233 51.9507 35.1157 52.0444C35.0831 52.46 35.081 52.9015 35.0532 53.3179L34.8026 54.342C34.71 54.3882 34.6319 54.3363 34.5534 54.2864C34.3086 54.1013 34.0509 54.219 34.0987 54.5248L34.1682 54.975C34.1682 54.975 33.8913 54.996 33.8155 54.9998C33.7396 55.0036 33.6012 54.9597 33.5538 54.9064C33.5064 54.853 33.5343 54.6904 33.4914 54.5987C33.4485 54.5071 33.4592 54.2914 33.4431 54.2051C33.4271 54.1188 33.1803 54.0811 33.1642 53.9409C33.1481 53.8007 33.073 53.6066 33.073 53.6066C33.073 53.6066 32.9121 53.4071 32.7673 53.3909C32.6224 53.3748 32.4669 53.5419 32.3757 53.5311C32.2845 53.5203 32.129 53.3209 32.0217 53.3101C31.9144 53.2993 31.7803 53.4718 31.6891 53.3802C31.5979 53.2885 31.4853 53.1267 31.4584 53.0735C31.3977 53.0278 31.3197 52.8437 31.2856 52.7484C31.2515 52.6531 31.0125 52.7179 30.9329 52.6874C30.8532 52.6569 30.7849 52.4854 30.7546 52.4434C30.7242 52.4015 30.6485 52.2317 30.6136 52.2613C30.5788 52.291 30.4152 52.318 30.3293 52.3045C30.2435 52.291 30.1604 52.4069 30.0799 52.4258C29.9994 52.4447 29.9512 52.3018 29.86 52.2587C29.7688 52.2155 29.5703 52.1859 29.5274 52.2236C29.4845 52.2613 29.2994 52.3368 29.2163 52.2721C29.1332 52.2074 29.0661 52.1427 29.0205 52.1481C28.9749 52.1535 28.814 52.0322 28.7684 51.981C28.7228 51.9298 28.7228 51.7572 28.696 51.6925C28.6692 51.6278 28.5297 51.6763 28.4332 51.7033C28.3366 51.7303 28.1971 51.6116 28.1113 51.6116C28.0255 51.6116 27.8699 51.5092 27.8699 51.5092C27.6628 51.5211 27.4781 51.6227 27.2692 51.6116C27.1941 51.5847 27.1361 51.536 27.0034 51.5779C26.8706 51.6199 26.8251 51.7343 26.6962 51.8296C26.5672 51.9249 26.4155 51.7724 26.3017 51.8601C26.1879 51.9478 26.04 52.1193 26.04 52.1193C25.8829 52.0175 25.8422 51.9549 25.6948 52.0355C25.6266 52.1003 25.4066 52.0622 25.3307 52.085C25.2548 52.1079 25.2776 52.2566 25.1448 52.2718C25.0121 52.2871 24.8718 52.3481 24.8718 52.3481C24.8718 52.3481 24.5456 52.2375 24.4621 52.2261C24.3787 52.2147 24.3294 52.0622 24.2345 52.0774C24.1397 52.0927 24.0904 52.2947 24.0828 52.3176C23.8863 52.2791 23.815 52.1003 23.6542 51.9706C23.5822 51.9096 23.6277 51.8029 23.6239 51.7838C23.6201 51.7648 23.4987 51.7152 23.4608 51.6504C23.4229 51.5856 23.3534 51.2854 23.4151 51.1857C23.4768 51.0859 23.4741 50.9727 23.4366 50.8891C23.3451 50.6893 23.174 50.4974 23.1818 50.2691C23.2167 50.172 23.1255 50.0723 23.0772 50.0345C23.0289 49.9968 22.927 49.9078 22.8814 49.9456C22.8358 49.9833 22.6534 50.013 22.6534 50.013C22.6534 50.013 22.5944 49.9024 22.5193 49.897C22.4442 49.8916 22.286 49.8701 22.2377 49.8485C22.1895 49.8269 21.9025 49.8835 21.8596 49.8458C21.8167 49.8081 21.6182 49.7218 21.5511 49.6921C21.4841 49.6625 21.417 49.5546 21.3875 49.5412C21.358 49.5277 21.2749 49.6382 21.1193 49.6598C20.9638 49.6814 21.0174 49.7326 20.9584 49.8134C20.8994 49.8943 20.7734 49.9024 20.6607 49.9024C20.5481 49.9024 20.4676 50.0049 20.3496 50.0103C20.2316 50.0156 20.017 50.021 19.9848 49.9887C19.9527 49.9563 19.9956 49.7946 19.9956 49.7946L19.6148 49.828C19.5275 49.7822 19.2848 49.7708 19.1596 49.7555C18.8689 49.7386 18.7815 50.2228 18.7196 50.4532C18.6703 50.5409 18.6286 50.8497 18.6286 50.8497C18.6286 50.8497 18.3783 50.8116 18.3934 50.9489C18.4086 51.0861 18.1545 51.1929 18.0559 51.2158C17.9573 51.2386 17.7221 51.1509 17.6311 51.0327C17.54 50.9146 17.5097 50.7201 17.4338 50.6515C17.358 50.5829 17.1416 50.5846 17.1416 50.5846C17.1416 50.5846 17.0733 51.0105 17.0733 51.0105C17.0064 51.1024 16.9403 51.2017 16.8649 51.2882L16.6195 51.0677C16.6195 51.0677 16.4666 51.1738 16.4249 51.292C16.3832 51.4102 16.2315 51.4598 16.1746 51.5474C16.1177 51.6351 16.1973 51.7953 16.167 51.8791C16.1366 51.963 15.9833 52.1859 15.9109 52.1805C15.8385 52.1751 15.6883 52.1239 15.6695 52.0726C15.6507 52.0214 15.5193 51.8785 15.4308 51.795C15.3423 51.7114 15.2592 51.7518 15.2592 51.7518C15.2592 51.7518 15.1304 51.6817 15.0446 51.5901C14.9588 51.4984 14.8408 51.3798 14.7978 51.2396C14.7549 51.0994 14.5243 51.0239 14.4438 50.9592C14.3634 50.8945 14.3205 50.6249 14.3795 50.5225C14.4385 50.42 14.4116 50.1747 14.366 50.0965C14.3205 50.0183 14.3821 49.9213 14.4653 49.8269C14.5484 49.7326 14.5806 49.5627 14.5565 49.5223C14.5323 49.4818 14.307 49.5358 14.2775 49.5304C14.248 49.525 14.2722 49.4603 14.2722 49.4603C14.2722 49.4603 14.2132 49.2824 14.24 49.1799C14.2668 49.0775 14.2024 48.878 14.0791 48.878C13.9557 48.878 13.9021 49.002 13.7894 49.0289C13.6768 49.0559 13.6607 49.1098 13.5802 49.126C13.4998 49.1422 13.3657 49.1368 13.312 48.9858C13.2584 48.8348 13.3067 48.576 13.2745 48.479C13.2423 48.3819 12.9848 47.929 12.9473 47.8913C12.9097 47.8535 12.6415 47.5785 12.5798 47.5435C12.5087 47.5888 12.3411 47.6513 12.266 47.6648C12.1909 47.6783 12.0273 47.5354 11.9469 47.4626C11.8664 47.3898 11.6385 47.3898 11.6063 47.3763C11.5741 47.3629 11.4158 47.22 11.4239 47.1957C11.4319 47.1714 11.3863 46.9018 11.3059 46.821C11.2254 46.7401 11.0806 46.7266 11.035 46.6538C10.9894 46.581 10.7239 46.6188 10.6568 46.6242C10.5898 46.6296 10.5201 46.697 10.5201 46.697C10.5201 46.697 10.6515 46.7293 10.6622 46.7428C10.7507 46.8264 10.8797 47.1363 10.9214 47.2049C10.9631 47.2735 11.0731 47.2659 11.13 47.3269C11.1869 47.3879 11.0238 47.4489 11.0238 47.4489C11.0238 47.4489 10.8266 47.3764 10.7317 47.407C10.6369 47.4375 10.4852 47.6433 10.4586 47.7272C10.4321 47.8111 10.5155 47.8225 10.6104 47.9522C10.7052 48.0818 10.7435 48.2347 10.7166 48.322C10.6896 48.4092 10.6894 48.4096 10.6894 48.4096C10.6894 48.4096 10.379 48.5812 10.3335 48.5584C10.288 48.5355 9.78729 48.444 9.6735 48.4745C9.55971 48.505 9.29421 48.6499 9.16525 48.6575C9.03629 48.6651 8.89216 48.8634 8.82388 48.9854C8.75561 49.1074 8.57734 49.2751 8.47114 49.2675C8.36494 49.2599 8.28529 49.3399 8.28529 49.3399C8.28529 49.3399 8.13357 49.0921 8.16771 49.0502C8.20185 49.0082 8.30046 48.688 8.31563 48.5889C8.3308 48.4897 8.41804 48.4211 8.48252 48.383C8.547 48.3449 8.49769 48.2762 8.47493 48.1962C8.45218 48.1161 8.34598 47.8454 8.28908 47.792C8.23219 47.7386 7.92875 47.6128 7.83014 47.6128C7.73152 47.6128 7.59877 47.6586 7.5267 47.6243C7.45464 47.59 7.27258 47.5633 7.26499 47.5938C7.2574 47.6243 7.2081 47.7119 7.27637 47.7806C7.34464 47.8492 7.32189 48.1123 7.28016 48.1923C7.23844 48.2724 7.1512 48.3029 7.13603 48.4287C7.12086 48.5545 6.97673 48.6193 6.8857 48.6003C6.79467 48.5812 6.43813 48.5545 6.37744 48.505C6.31676 48.4554 6.2409 48.4211 6.12711 48.4402C6.01332 48.4592 5.6492 48.566 5.6492 48.566C5.6492 48.566 5.64954 48.363 5.63076 48.3307C5.61199 48.2983 5.63344 48.0719 5.74073 47.9829C5.84801 47.894 5.88019 47.7025 5.90969 47.619C5.93919 47.5354 5.87751 47.4222 5.83728 47.3629C5.79705 47.3035 5.789 47.1418 5.789 47.1418C5.789 47.1418 5.5503 47.0879 5.47521 47.1472C5.40011 47.2065 5.23651 47.1984 5.17214 47.2119C5.10777 47.2254 4.99245 47.4815 4.85298 47.6217C4.71352 47.7618 4.68133 47.9775 4.61697 48.0746C4.5526 48.1716 4.15566 48.4682 4.09666 48.5113C4.03765 48.5545 3.72619 48.81 3.72619 48.81C3.68067 48.6346 3.62757 48.4211 3.69585 48.3067C3.76412 48.1923 3.79446 47.9788 3.69585 47.8797C3.59723 47.7806 3.52896 47.7806 3.47586 47.6281C3.42276 47.4756 3.14966 47.3231 3.14966 47.1934C3.14966 47.0638 3.13449 47.0409 3.13449 47.0409C3.13449 47.0409 2.94876 47.104 2.8522 47.158C2.75565 47.2119 2.68592 47.3898 2.525 47.3521C2.36408 47.3143 2.21925 47.4006 2.07979 47.3467C1.94032 47.2928 1.7794 47.0016 1.59166 47.0501C1.40392 47.0987 1.22155 47.158 1.13036 46.9908C1.03917 46.8237 0.910434 46.7859 0.733421 46.7158C0.556409 46.6457 0.363305 46.7482 0.282845 46.759C0.202385 46.7698 0.0092803 46.6889 0.0092803 46.6889C0.0092803 46.6889 -0.0175398 46.457 0.0200083 46.4193C0.0575564 46.3815 0.315029 46.3815 0.374033 46.3276C0.433037 46.2737 0.599321 46.0095 0.561773 45.9125C0.524225 45.8154 0.395489 45.7183 0.529589 45.6321C0.663689 45.5458 1.03917 45.3894 1.01771 45.287C0.996258 45.1846 0.915798 44.9797 0.942618 44.9096C0.969437 44.8395 1.13572 44.7963 1.02308 44.6562C0.910434 44.516 0.851429 44.2356 1.01235 44.2086C1.17327 44.1817 1.27519 44.0469 1.37174 43.8905C1.46829 43.7341 1.43749 43.5073 1.36637 43.4807C1.29295 43.4533 1.52071 43.0638 1.56016 43.0109C1.56016 43.0109 1.43074 43.1302 1.35565 43.1033C1.28055 43.0763 0.94262 42.6396 0.921164 42.4671C0.899707 42.2945 1.07136 42.1867 1.125 42.1112C1.17864 42.0357 0.958712 41.8686 1.00162 41.7392C1.04454 41.6097 1.32883 41.2916 1.40929 41.2323C1.48975 41.173 1.77663 40.529 1.80697 40.4756C1.83731 40.4222 2.0573 39.858 1.98145 39.8351C1.90559 39.8122 1.70077 39.919 1.65525 39.8808C1.60974 39.8427 1.34423 39.8198 1.34423 39.6978C1.34423 39.5758 1.27596 39.309 1.30631 39.2251C1.33665 39.1412 1.46561 39.0116 1.46561 39.0116C1.46561 39.0116 1.33665 38.7676 1.40492 38.7066C1.47319 38.6456 1.57181 38.4931 1.57181 38.4931C1.57181 38.4931 1.36699 38.291 1.29113 38.2033C1.21528 38.1156 1.07114 37.8602 1.12045 37.8144C1.16976 37.7687 1.27217 37.7572 1.27217 37.7572C1.27217 37.7572 1.27217 37.9593 1.30631 37.9631C1.34044 37.9669 1.54905 38.0355 1.59457 38.0127C1.64008 37.9898 1.9511 37.9326 2.008 37.8945C2.06489 37.8563 2.09523 37.5742 2.05351 37.5666C2.01179 37.559 1.81456 37.5056 1.80697 37.437C1.79939 37.3683 1.89042 36.9566 1.89421 36.846C1.898 36.7354 1.82214 36.4838 1.88283 36.4419C1.94352 36.3999 2.20144 36.4076 2.21661 36.3732C2.23178 36.3389 2.25454 35.9081 2.14454 35.828C2.03455 35.748 1.78801 35.5802 1.77663 35.4887C1.76525 35.3972 1.98524 35.2828 2.01938 35.2028C2.05351 35.1227 1.91317 34.9854 1.93593 34.9397C1.95869 34.8939 2.15592 34.7719 2.21661 34.7567C2.27729 34.7414 2.28867 34.5279 2.24316 34.4174C2.19764 34.3068 2.23178 34.1047 2.27729 34.0285C2.32281 33.9522 2.4366 33.6663 2.49728 33.6434C2.55797 33.6205 2.59211 33.895 2.68693 33.895C2.78175 33.895 2.91071 33.5519 2.9183 33.5252C2.92588 33.4985 2.53901 33.1859 2.53521 33.1173C2.53142 33.0486 2.63383 32.9076 2.72865 32.9724C2.82348 33.0372 3.17243 33.0601 3.17243 33.0601C3.17243 33.0601 3.30138 33.2126 3.34311 33.1897C3.38483 33.1668 3.5593 32.8313 3.5593 32.8313C3.73734 32.8668 3.89229 32.8791 3.92883 32.7723C3.92883 32.7723 3.57827 32.5301 3.49103 32.5416C3.40379 32.553 3.27863 32.6674 3.16863 32.5873C3.05864 32.5072 2.90313 32.1908 2.9183 32.1755C2.93347 32.1603 3.35828 31.9125 3.32035 31.8705C3.28242 31.8286 3.02829 31.7295 3.0245 31.6456C3.02071 31.5617 3.09277 31.4473 3.19518 31.4778C3.29759 31.5083 3.35449 31.5579 3.39621 31.4473C3.43793 31.3368 3.2398 31.0134 3.26346 30.9021C3.31492 30.6601 3.65867 30.7838 3.65792 30.7878C3.65792 30.7878 3.64072 30.4378 3.69436 30.3785C3.73775 30.3398 3.92315 30.1558 3.89819 29.9526C3.80164 29.8933 3.45298 30.0874 3.43688 30.0388C3.42079 29.9903 3.56026 29.9094 3.52271 29.78C3.40827 29.6145 3.24405 29.2758 3.19014 29.257C3.0614 29.2031 2.88434 29.1089 2.99167 29.0144C3.02756 28.9659 3.05586 28.9491 3.099 28.9198C3.19765 28.9688 3.29631 29.0177 3.39496 29.0667C3.4618 28.9672 3.54041 28.8731 3.55613 28.7499C3.5232 28.545 3.60548 28.6279 3.65374 28.3924C3.74565 28.3191 3.86667 28.2722 3.90807 28.1531C3.93344 27.9162 3.80783 28.1251 3.75887 28.0943C3.66481 28.0519 3.693 27.9884 3.74465 27.9208C3.66067 27.7153 3.85991 27.5145 3.88683 27.3031C3.82202 27.1565 3.70877 27.0614 3.86495 26.9381C3.97586 26.8877 3.86977 26.8529 3.88837 26.7681C3.97421 26.6229 4.06211 26.4954 4.09234 26.3115C4.07149 26.238 4.0204 26.1623 4.01737 26.0902C4.06245 25.9841 4.19049 25.9602 4.2764 25.8946C4.33396 25.8684 4.4142 25.7421 4.38973 25.8777C4.42016 25.9603 4.3203 26.01 4.31247 26.0737C4.33405 26.1708 4.43628 26.1276 4.50865 26.1363C4.57618 26.1557 4.64527 26.2539 4.69916 26.1609C4.75246 26.1239 4.82327 26.0038 4.84247 26.1287C4.88748 26.2315 4.94384 26.35 5.04731 26.4009C5.15288 26.4165 5.26068 26.4944 5.27736 26.6036C5.24747 26.7347 5.33816 26.6527 5.40375 26.615C5.46838 26.5497 5.51034 26.4493 5.6125 26.442C5.69283 26.4236 5.73354 26.335 5.81823 26.3199C5.91194 26.243 5.92625 26.3257 5.93839 26.4128C5.9306 26.492 6.04815 26.5468 6.06539 26.4481C6.09101 26.3837 6.05583 26.279 6.13045 26.2425C6.24359 26.2634 6.34332 26.1919 6.45527 26.2045C6.48199 26.1121 6.59289 26.084 6.60685 25.9865C6.64968 25.9099 6.49576 25.9226 6.48946 25.8363C6.44623 25.7748 6.38311 25.7157 6.44202 25.6415C6.47901 25.5533 6.53444 25.4737 6.57885 25.3889C6.50379 25.4049 6.39905 25.3873 6.47058 25.2987C6.69072 25.1265 6.39096 25.1916 6.51773 25.0496C6.54931 24.9738 6.66697 25.1117 6.70393 25.0798C6.69459 25.0015 6.73502 24.9004 6.64738 24.8581C6.60533 24.8187 6.53618 24.7056 6.63254 24.697C6.70189 24.6669 6.77167 24.7598 6.84107 24.7533C6.92798 24.6292 6.94865 24.615 7.07763 24.561C7.15088 24.3967 7.28008 24.3145 7.38635 24.1825C7.60426 24.1437 7.30968 23.8371 7.63447 23.8856C7.77429 23.7043 7.46226 23.6096 7.63798 23.5272C7.6173 23.2509 7.99802 23.5233 7.93085 23.236C7.83779 23.0233 7.75034 22.9327 8.03984 22.9947C8.28987 23.0236 8.19375 22.7286 8.14074 22.5861C7.93443 22.5549 7.91117 22.499 8.06336 22.3086C8.09056 22.1929 7.65492 22.4445 7.9162 22.178C8.00088 22.0828 8.37984 22.2996 8.158 22.0716C8.07848 21.8825 8.11791 21.709 8.33333 21.8791C8.59899 22.0546 8.33165 21.6828 8.50977 21.5672C8.54932 21.3724 8.31615 21.2786 8.21047 21.2657C8.23172 21.0794 8.21566 21.0083 8.18487 20.8192C8.38265 20.7535 8.25943 20.5787 8.34184 20.5255C8.6083 20.6032 8.53846 20.1726 8.32379 20.3438C8.21741 20.1749 8.16363 20.4749 8.02862 20.3662C8.08051 20.1803 8.16019 19.991 8.14609 19.9066C8.40232 19.8835 8.33561 19.7353 8.33797 19.6048C8.55851 19.5347 8.47752 19.2912 8.58949 19.2198C8.729 19.1021 8.63975 18.9553 8.93295 18.9922C9.16833 18.8667 9.15772 19.1948 9.38527 19.0967C9.56902 19.1033 9.63767 18.8073 9.6954 19.0706C9.66812 18.9397 9.84513 18.7923 9.81472 18.6799C9.69662 18.5025 9.95076 18.3651 9.966 18.1897C10.0895 18.0571 10.226 17.9187 10.3137 17.7719C10.4573 17.6649 10.7057 17.7285 10.6988 17.4864C10.7641 17.3211 10.7389 17.1061 10.8942 17.0325C10.872 16.7925 11.0859 16.8184 10.96 16.6319C11.0119 16.4716 11.0131 16.338 11.0734 16.1665C11.018 15.9933 11.0063 15.7986 10.9987 15.6291C11.1182 15.4038 11.0906 15.1111 11.2986 14.9309C11.3804 14.7641 11.5077 14.6604 11.6343 14.5351C11.6066 14.3488 11.7376 14.2371 11.8841 14.1152C11.9016 13.9152 12.1077 13.8535 12.1496 13.6688C12.1852 13.5003 12.0785 13.2523 12.2942 13.162C12.4879 13.057 12.5138 12.7298 12.7435 12.7033C12.9124 12.7292 13.1591 12.6925 13.1964 12.4948C13.1784 12.3089 13.28 12.1649 13.4702 12.1233C13.7072 12.0639 13.8238 11.7974 14.0827 11.7955C14.3847 11.8636 14.526 11.554 14.699 11.3667C14.7289 11.5816 14.7559 11.808 14.6719 12.0147C14.6562 12.1781 14.8174 12.3014 14.9702 12.327C15.1274 12.4079 15.2691 12.2092 15.4209 12.3026C15.5187 12.3781 15.7247 12.3155 15.7695 12.3974C15.7037 12.6052 15.6399 12.8147 15.5848 13.0259C15.5674 13.2162 15.6284 13.3675 15.8398 13.2836C15.9957 13.2874 16.0625 13.0833 16.2379 13.1589C16.3961 13.1509 16.5484 13.2567 16.6995 13.2351C16.83 13.1735 16.983 13.0768 17.1285 13.126C17.2943 13.1676 17.3783 13.3027 17.4584 13.4419C17.5433 13.5912 17.6009 13.8419 17.8162 13.8233C17.9473 13.903 18.1431 13.9469 18.1481 14.1407C18.21 14.2216 18.2732 14.2885 18.1891 14.3863C18.1574 14.5325 18.3598 14.4338 18.4284 14.5144C18.5082 14.4482 18.5528 14.4704 18.6309 14.5295C18.6309 14.5295 18.735 14.3378 18.7243 14.1868C18.7136 14.0358 18.853 13.8848 18.9281 13.777C19.0032 13.6692 19.1427 13.3564 19.1749 13.2055C19.2071 13.0545 19.4002 12.7526 19.5289 12.7202C19.6576 12.6879 19.6791 12.5584 19.6469 12.3859C19.6147 12.2134 20.2048 11.5556 20.355 11.383C20.5052 11.2105 20.3448 11.0054 20.2799 10.8546C20.2182 10.7115 20.7335 10.8993 20.7492 10.7603C20.7601 10.6637 20.7723 10.6251 20.7841 10.4664C20.7962 10.3037 20.9128 10.089 20.9021 9.92723C20.8914 9.76547 21.055 9.82208 21.1622 9.89757C21.2695 9.97306 21.5994 9.91644 21.5994 9.91644C21.5994 9.91644 21.6316 9.52823 21.8676 9.38804C22.1036 9.24785 22.286 9.16158 22.3611 9.05375C22.4362 8.94591 22.3396 8.66553 22.4898 8.57926C22.64 8.49299 23.0155 8.23418 23.2301 8.18027C23.4446 8.12635 23.4017 7.91606 23.5144 7.82979C23.627 7.74353 23.7611 7.67882 23.7289 7.56559C23.6967 7.45237 23.8952 7.20973 24.0722 7.04258C24.2492 6.87544 24.3726 6.76221 24.5283 6.75632C24.5283 6.75632 24.4316 6.56271 24.496 6.42252C24.5603 6.28233 24.5013 6.11518 24.4745 5.99117C24.4477 5.86716 24.142 5.73775 24.0186 5.65688C23.8952 5.576 23.5787 5.6407 23.4822 5.7755C23.3856 5.91029 23.1925 5.89412 23.1925 5.89412C23.1925 5.89412 23.037 5.53826 23.037 5.43042C23.037 5.32258 23.273 5.16622 23.2462 5.08534C23.2193 5.00446 23.2783 4.74565 23.2998 4.70252C23.3213 4.65938 23.4446 4.68095 23.5787 4.68634C23.7128 4.69174 24.26 4.49763 24.4048 4.48685C24.5496 4.47606 24.9573 4.4491 25.0807 4.42754C25.204 4.40597 25.0163 4.33048 24.9412 4.255C24.8661 4.17951 25.1021 4.05011 25.1397 3.98001C25.1772 3.90992 25.3757 4.00697 25.5366 4.03932C25.6975 4.07167 26.1481 4.12559 26.2929 4.08246C26.4377 4.03932 26.765 3.81826 26.8347 3.78051C26.9044 3.74277 27.2102 3.856 27.3496 3.7859C27.4891 3.71581 27.6876 3.92609 27.768 3.9207C27.8485 3.91531 28.4063 3.89913 28.5404 4.02854C28.6745 4.15794 29.0204 4.184 29.0204 4.184C29.0204 4.184 29.2807 4.04471 29.345 3.98001C29.4094 3.91531 29.3343 3.75895 29.3558 3.75355C29.3772 3.74816 29.6722 3.63493 29.7527 3.58641C29.8332 3.53788 29.9726 3.62954 30.0906 3.70503C30.2086 3.78051 30.3481 3.61337 30.4018 3.58641C30.4554 3.55945 30.5895 3.30603 30.6807 3.23054C30.7719 3.15506 30.933 3.14606 30.933 3.14606C30.933 3.14606 30.8951 3.31 30.933 3.40913C30.971 3.50826 31.0544 3.39769 31.1568 3.371C31.2592 3.34431 31.2516 3.5502 31.2858 3.60357C31.3199 3.65695 31.4147 3.47776 31.5361 3.49301C31.6575 3.50826 31.6195 3.68745 31.6689 3.75226C31.7182 3.81708 31.9837 3.85139 31.9837 3.85139L32.129 3.80747C32.3221 3.89374 32.4669 3.87217 32.5903 4.00697C32.7136 4.14177 32.8477 4.37362 32.8477 4.49224C32.8477 4.61086 32.6654 4.7834 32.6654 4.7834C32.6654 4.7834 32.6815 4.77801 32.8531 4.81575C33.0247 4.85349 33.2769 4.93976 33.2939 4.94825C33.2939 4.94825 33.352 4.79957 33.3466 4.73487C33.3412 4.67017 33.4485 4.45449 33.588 4.36283C33.7274 4.27117 33.9688 4.41136 34.06 4.36283C34.1512 4.31431 34.6071 4.37362 34.6071 4.37362C34.6071 4.37362 34.6447 4.16873 34.7305 4.10942C34.8163 4.05011 34.9558 4.03393 35.0684 4.07167C35.1811 4.10942 35.4332 4.02854 35.5297 3.92609C35.6263 3.82365 35.8623 3.88835 35.8623 3.88835C35.8623 3.88835 35.8409 4.13637 35.7818 4.22264C35.7228 4.30891 35.8228 4.49671 35.8228 4.49671C35.8228 4.49671 35.7726 4.67516 35.7916 4.75141C35.8106 4.82766 35.9471 5.01448 35.9699 5.09073C35.9926 5.16698 36.1785 5.15936 36.2809 5.26992C36.3833 5.38049 36.3947 5.54443 36.4039 5.55522C36.4039 5.55522 36.5312 5.63975 36.6222 5.69312C36.7133 5.7465 36.8536 5.96763 36.9371 6.00195C37.0205 6.03626 37.195 6.05532 37.3163 5.95619C37.4377 5.85707 37.4908 5.72363 37.5856 5.75031C37.6805 5.777 38.1963 5.72744 38.2418 5.63212C38.2873 5.53681 38.6287 5.23561 38.6287 5.23561C38.6287 5.23561 38.879 5.46437 39.0042 5.51393C39.1294 5.5635 39.5011 5.73888 39.5429 5.76257C39.6303 5.62614 39.6945 5.57112 39.7097 5.56731C39.8424 5.52537 40.2824 5.36905 40.3734 5.36524C40.4645 5.36143 41.0448 5.02592 41.1927 4.86197C41.3406 4.69803 41.6251 4.73616 41.7617 4.67516C41.8982 4.61415 42.3534 4.59128 42.3534 4.59128C42.3534 4.59128 42.4292 4.2939 42.4937 4.14139C42.5582 3.98889 42.4861 3.58475 42.4899 3.45512C42.4937 3.32549 42.6416 3.05098 42.7213 3.02048C42.8009 2.98998 43.1916 2.86416 43.3433 2.8146C43.495 2.76504 43.7643 2.43334 43.8743 2.38377C43.9843 2.33421 44.2119 2.31134 44.3408 2.38759C44.4698 2.46384 44.6115 2.36902 44.6115 2.36902C44.6115 2.36902 44.7277 2.37234 44.8453 2.37996C44.9629 2.38759 44.9894 2.16646 44.9667 2.09402C44.9439 2.02158 45.0312 2.03301 45.1677 1.9987C45.3042 1.96439 45.3422 1.70132 45.3725 1.62888C45.4029 1.55644 45.5849 1.545 45.6722 1.51069C45.7594 1.47637 45.9415 1.33149 46.0401 1.26287C46.1387 1.19424 46.2411 0.961669 46.279 0.862541C46.317 0.763413 46.3245 0.64141 46.3966 0.599471C46.4687 0.557532 46.6773 0.519406 46.6773 0.519406C46.6773 0.519406 46.5711 0.355463 46.5369 0.263961C46.5028 0.172458 46.6735 0.168645 46.7607 0.107643C46.848 0.0466416 46.8404 -0.0181729 46.9769 0.00470283C47.1135 0.0275785 47.2007 0.267773 47.2007 0.267773C47.2007 0.267773 47.3448 0.180083 47.4397 0.153395C47.5345 0.126707 47.5535 0.305899 47.5497 0.416465C47.5459 0.527031 47.2842 0.637597 47.2235 0.690974C47.1628 0.74435 46.994 1.12371 47.0319 1.18471C47.0699 1.24571 46.958 1.49925 46.9257 1.55453C46.8935 1.60981 47.0452 1.63078 47.1305 1.56597C47.2159 1.50115 47.4662 1.55644 47.5136 1.61172C47.561 1.667 47.4852 1.72991 47.4093 1.70894C47.3335 1.68797 47.1249 1.83095 47.0945 1.88432C47.0642 1.9377 46.9352 2.14358 46.9276 2.26558C46.92 2.38759 46.8593 2.60872 46.7 2.62397C46.5407 2.63922 46.4573 2.79172 46.4725 2.92135C46.4876 3.05098 46.4118 3.26449 46.3739 3.34837C46.3359 3.43224 46.5104 3.6305 46.5938 3.783C46.6773 3.93551 46.4649 4.02701 46.4497 4.10326C46.4345 4.17952 46.738 4.20239 46.6773 4.27864C46.6166 4.3549 46.5559 4.45021 46.5294 4.51884C46.5028 4.58747 46.5256 4.75522 46.4156 4.83147C46.3056 4.90773 46.4573 5.03735 46.4763 5.1403C46.4952 5.24324 46.3132 5.52918 46.3132 5.52918C46.3132 5.52918 46.4455 5.63531 46.5528 5.6407C46.6601 5.64609 46.8532 5.69462 46.9551 5.75932C47.057 5.82402 47.1804 6.10979 47.2286 6.12597C47.2769 6.14214 47.4702 6.0437 47.4915 6.21763C47.5128 6.39156 47.6256 6.35243 47.7704 6.39556C47.9152 6.4387 48.0011 6.62741 48.0976 6.72446C48.1942 6.82152 48.8486 6.99945 49.0041 6.97249C49.1597 6.94553 49.2294 7.13964 49.2509 7.17199C49.2723 7.20434 49.5727 7.22591 49.6693 7.21512C49.7658 7.20434 50.0179 7.04798 50.0179 7.04798C50.0179 7.04798 49.9214 7.28522 49.8731 7.34453C49.8248 7.40384 49.857 7.6303 49.857 7.77588C49.857 7.92146 49.7336 8.09939 49.7068 8.13713C49.68 8.17487 49.4601 8.41751 49.4601 8.41751C49.4601 8.41751 49.1811 8.47142 49.1543 8.48221C49.1275 8.49299 48.8218 8.71406 48.7788 8.73023C48.7359 8.74641 48.7627 8.89199 48.7646 8.91652C48.7646 8.91652 48.6608 9.39343 48.6447 9.49048C48.6286 9.58754 48.6769 9.7439 48.6877 9.89487C48.6984 10.0458 48.6233 10.1752 48.4945 10.186C48.3658 10.1968 48.3551 10.3154 48.3229 10.4125C48.2907 10.5095 48.0332 11.0379 47.9152 11.1566C47.7972 11.2752 47.5773 11.9276 47.5773 11.9276C47.5773 11.9276 47.3252 12.5099 47.3198 12.6555C47.3145 12.8011 47.3091 13.3187 47.3091 13.3187L47.0463 14.1221C47.0463 14.1221 47.3788 14.6451 47.4057 14.6774C47.4325 14.7098 47.6631 14.8338 47.7329 14.9093C47.8026 14.9848 47.9957 15.2975 48.0922 15.3299C48.1888 15.3622 48.457 15.3406 48.5482 15.3191C48.6394 15.2975 48.7735 15.4269 48.8218 15.4916C48.87 15.5563 48.991 15.6593 49.1123 15.6707C49.2337 15.6822 49.393 15.7508 49.4537 15.7775C49.5144 15.8042 49.6509 16.0291 49.6775 16.0482C49.704 16.0673 50.0126 16.1332 50.1145 16.1009C50.2164 16.0685 50.431 16.171 50.431 16.171H50.8225C50.9137 16.171 51.0505 16.3913 51.1605 16.3684C51.2705 16.3456 51.5284 16.4828 51.5778 16.479C51.6271 16.4752 51.904 16.3769 51.904 16.3769C51.904 16.3769 51.9798 16.4561 51.9646 16.5362C51.9495 16.6163 52 16.7479 52 16.7479C52 16.7479 51.7902 17.0318 51.7295 17.1081C51.6688 17.1843 51.4981 17.3292 51.4981 17.3292C51.4981 17.3292 51.5398 17.4512 51.5512 17.4779C51.5891 17.5427 51.7446 17.7448 51.756 17.8096C51.7674 17.8744 51.8926 18.1604 51.9077 18.2023C51.9229 18.2443 51.6498 18.5607 51.6498 18.5607C51.6498 18.5607 51.6195 18.6751 51.6309 18.7818C51.6422 18.8886 51.7598 19.1822 51.8053 19.247C51.8508 19.3118 51.7522 19.571 51.7219 19.6168C51.6915 19.6625 51.6157 19.918 51.5967 20.0019C51.5778 20.0857 51.4147 20.4632 51.4147 20.4632C51.4147 20.4632 50.9292 20.7148 50.8381 20.8254C50.7471 20.936 50.6219 21.2181 50.5195 21.2943C50.4171 21.3706 50.4702 21.6489 50.5764 21.729C50.6826 21.809 50.7774 21.7137 50.9102 21.7595C51.0429 21.8052 51.1226 21.9349 51.1416 21.9463C51.1416 21.9463 51.0581 22.1636 51.0505 22.217C51.0429 22.2704 50.9674 22.5981 50.9405 22.6196C50.9137 22.6412 50.726 22.5873 50.726 22.5873C50.726 22.5873 50.6133 22.8245 50.5436 22.9216C50.4739 23.0186 50.3934 23.1804 50.3773 23.3152C50.3612 23.45 50.2379 23.5848 50.211 23.6711C50.1842 23.7573 49.9643 23.8975 49.8946 23.9514C49.8248 24.0053 49.8355 24.1563 49.8355 24.1563L49.6168 24.2491C49.5789 24.2758 49.4537 24.2072 49.4537 24.2072C49.4537 24.2072 49.1692 24.6228 49.1768 24.7257C49.1844 24.8286 48.9948 24.9392 48.8924 25.0002C48.79 25.0612 48.7015 25.2303 48.7015 25.2303L48.6952 25.5428C48.7239 25.6881 48.7704 25.8068 48.7597 25.9529C48.3743 26.4039 48.3948 26.805 48.7078 27.1902L48.7163 27.4217C48.4045 27.8081 48.0892 28.2313 48.0572 28.6856C47.868 28.8049 47.6727 28.9122 47.4744 29.0154L47.2844 28.8994C47.5081 28.485 47.0575 28.0294 46.9595 28.6883C47.0254 28.7794 47.0313 28.8734 47.0511 28.982C46.9271 29.0077 46.877 28.9968 46.782 28.9264C46.5054 28.6424 46.3148 28.8205 46.1726 29.1177C46.2579 29.2542 46.3095 29.3985 46.358 29.5508C46.3227 30.1959 46.0328 30.774 45.7285 31.332L45.4148 31.7921C45.1468 32.1394 44.9018 32.435 44.5075 32.607L44.3743 32.8112C44.1905 32.91 43.988 32.9416 43.792 33.0082L42.9435 34.7665L42.7387 35.4334L42.1338 35.5427Z" fill="white"/>
</svg>
